<?xml version="1.0" encoding="iso-8859-1"?>
<!-- Generator: Adobe Illustrator 19.0.0, SVG Export Plug-In . SVG Version: 6.00 Build 0)  -->
<svg version="1.1" id="Capa_1" xmlns="http://www.w3.org/2000/svg" xmlns:xlink="http://www.w3.org/1999/xlink" x="0px" y="0px"
	 viewBox="0 0 512.002 512.002" style="enable-background:new 0 0 512.002 512.002;" xml:space="preserve">
<g>
	<g>
		<g>
			<path d="M245.096,63.239c-4.121-0.269-7.712,2.84-7.993,6.972c-0.583,8.552,7.618,34.874,24.734,52.614
				c5.337,5.531,11.167,9.771,17.333,12.672c-11.024,5.619-21.984,10.094-34.469,10.094c-0.038,0-0.08-0.003-0.116,0
				c-4.136,0-7.492,3.349-7.5,7.485c-0.008,4.143,3.344,7.507,7.485,7.515h0.133c19.591,0,35.276-8.42,50.446-16.563
				c13.091-7.026,25.455-13.664,39.429-14.326c4.137-0.195,7.332-3.709,7.136-7.847c-0.196-4.136-3.659-7.336-7.847-7.136
				c-12.9,0.611-24.196,5.054-34.887,10.375c-9.265-0.14-17.926-4.197-25.765-12.088c-14.86-14.959-21.293-37.866-21.147-41.787
				C252.343,67.093,249.224,63.521,245.096,63.239z"/>
			<path d="M278.088,172.767l-7.832,7.832c-2.929,2.93-2.929,7.678,0,10.607c1.465,1.464,3.385,2.196,5.304,2.196
				c1.919,0,3.839-0.732,5.304-2.196l7.832-7.832c2.929-2.93,2.929-7.678,0-10.607C285.765,169.839,281.017,169.839,278.088,172.767
				z"/>
			<path d="M284.198,291.13c4.051-0.864,6.634-4.85,5.77-8.9c-0.864-4.051-4.852-6.629-8.9-5.77
				c-10.995,2.345-19.672,2.114-23.959,1.292c-4.61-13.169-10.634-26.221-28.682-34.888c-3.734-1.793-8.215-0.22-10.008,3.514
				c-1.793,3.734-0.22,8.215,3.514,10.008c14.525,6.976,17.907,17.02,22.589,30.923c4.479,13.303,10.054,29.859,27.753,45.51
				c1.427,1.261,3.199,1.881,4.965,1.881c2.074,0,4.14-0.855,5.622-2.532c2.743-3.103,2.452-7.843-0.651-10.587
				c-10.608-9.379-15.883-18.89-19.619-28.274c0.638,0.018,1.277,0.036,1.935,0.036C270.502,293.341,277.268,292.608,284.198,291.13
				z"/>
			<path d="M370.892,265.571l-7.832,7.832c-2.929,2.93-2.929,7.678,0,10.607c1.465,1.464,3.385,2.196,5.304,2.196
				s3.839-0.732,5.304-2.196l7.832-7.832c2.929-2.93,2.929-7.678,0-10.607C378.57,262.644,373.822,262.644,370.892,265.571z"/>
			<path d="M11.76,150.519c5.991-4.135,15.859-7.081,27.227-8.609c-10.851,16.792-19.683,34.96-25.863,53.573
				c-1.305,3.931,0.823,8.176,4.755,9.481c0.784,0.26,1.581,0.384,2.364,0.384c3.144,0,6.072-1.992,7.117-5.139
				c6.952-20.938,17.479-41.279,30.581-59.491c17.365,0.06,35.227,3.195,46.92,10.089c1.195,0.705,2.507,1.04,3.802,1.04
				c2.567,0,5.069-1.319,6.468-3.692c2.104-3.568,0.916-8.166-2.652-10.27c-11.578-6.826-27.077-10.605-43.033-11.827
				c3.783-4.419,7.713-8.678,11.797-12.717c6.152-6.085,12.476-12.212,18.981-18.244c1.173,1.076,2.416,2.127,3.738,3.149
				c7.235,5.589,16.237,9.843,22.934,10.837c0.374,0.056,0.744,0.082,1.111,0.082c3.654,0,6.856-2.676,7.409-6.399
				c0.608-4.098-2.221-7.912-6.317-8.521c-4.216-0.626-11.656-4.101-17.654-9.263c14.013-12.238,28.902-23.697,44.896-33.066
				c1.425-0.835,2.855-1.631,4.285-2.424c8.433,4.799,16.861,11.074,22.595,18.655c2.413,3.189,4.188,6.384,5.335,9.609
				c0.04,0.132,0.083,0.262,0.13,0.391c1.807,5.316,1.914,10.718,0.329,16.318c-1.128,3.985,1.189,8.13,5.176,9.258
				c0.683,0.193,1.369,0.285,2.045,0.285c3.271,0,6.278-2.157,7.213-5.461c2.065-7.301,2.176-14.617,0.416-21.724
				c1.346-1.724,3.434-4.201,5.225-6.325c9.559-11.334,23.587-27.981,28.107-43.862c4.02-0.258,8.078-0.389,12.178-0.389
				c28.774,0,55.219,6.94,80.555,17.674c-10.567,6.742-19.752,15.276-27.342,22.332l-1.883,1.748
				c-3.037,2.815-3.218,7.562-0.402,10.6c1.479,1.594,3.487,2.401,5.503,2.401c1.824,0,3.653-0.661,5.097-1.999l1.9-1.765
				c9.984-9.282,21.346-19.842,33.982-25.585c18.392,9.07,36.326,19.831,54.289,31.024c7.788,4.852,15.059,10.472,21.812,16.817
				c-6.361,5.264-12.585,11.371-18.493,18.198c-9.163-10.513-26.022-23.352-41.992-28.346c-3.955-1.235-8.16,0.968-9.397,4.92
				c-1.236,3.953,0.967,8.16,4.92,9.396c16.568,5.181,31.808,19.421,36.991,26.002c-17.377,24.054-26.306,49.695-24.673,71.448
				c0.295,3.939,3.583,6.939,7.471,6.939c0.188,0,0.378-0.007,0.569-0.021c4.13-0.31,7.228-3.909,6.917-8.04
				c-1.497-19.953,8.628-45.507,27.085-68.355c6.605-8.177,13.762-15.369,21.033-21.279c9.723,11.214,18.126,24.213,25.128,38.932
				c1.78,3.741,6.255,5.329,9.995,3.55s5.329-6.255,3.55-9.995c-7.362-15.473-16.183-29.219-26.373-41.185
				c8.129-4.895,16.092-7.975,23.271-8.805c4.114-0.476,7.064-4.196,6.589-8.312c-0.475-4.115-4.191-7.065-8.311-6.589
				c-10.139,1.172-21.097,5.55-32,12.54c-8.023-7.804-16.741-14.676-26.16-20.545c-12.182-7.591-24.361-14.989-36.695-21.835
				c1.971,0.39,3.962,0.928,5.98,1.668c3.886,1.428,8.198-0.567,9.625-4.455c1.428-3.888-0.566-8.197-4.455-9.625
				c-12.956-4.758-24.994-4.04-35.958-0.38c-30.416-14.348-62.369-24.073-98.128-24.073c-3.825,0-7.586,0.107-11.287,0.31
				c-0.353-1.637-0.858-3.244-1.578-4.805c-1.733-3.76-6.187-5.403-9.951-3.67c-3.748,1.728-5.39,6.157-3.686,9.91
				c-22.913,3.064-43.427,10.012-62.194,19.519c-12.255-5.943-23.626-9.03-28.884-9.03c-4.142,0-7.5,3.357-7.5,7.5
				c0,4.143,3.357,7.5,7.5,7.5c2.004,0,6.594,1.132,12.362,3.292c-14.747,9.066-28.43,19.612-41.421,30.884
				c-0.25-0.881-0.433-1.774-0.524-2.682c-0.413-4.122-4.088-7.125-8.211-6.715c-4.121,0.413-7.128,4.089-6.715,8.211
				c0.406,4.056,1.636,8.009,3.619,11.795c-6.888,6.365-13.605,12.877-20.211,19.411c-7.224,7.146-14.016,14.906-20.327,23.111
				c-19.115,0.911-36.88,5.313-47.126,12.385c-3.409,2.353-4.266,7.023-1.913,10.433C3.681,152.016,8.353,152.872,11.76,150.519z
				 M220.564,28.495c-5.518,11.669-16.901,25.17-22.94,32.331c-0.226,0.268-0.438,0.521-0.654,0.776
				c-0.568-0.841-1.16-1.677-1.786-2.506c-5.101-6.744-11.719-12.576-18.793-17.464C190.745,35.266,205.407,30.9,220.564,28.495z"/>
			<path d="M410.158,272.099c0.359,0.051,0.717,0.076,1.07,0.076c3.672,0,6.88-2.699,7.415-6.441
				c1.018-7.12-1.549-14.344-7.42-20.89c-3.673-4.095-11.019-10.094-16.411-10.094c-0.079,0-0.158,0.002-0.237,0.004
				c-4.14,0.139-7.383,3.607-7.245,7.747c0.121,3.613,2.778,6.544,6.205,7.139c2.661,1.249,11.138,7.82,10.259,13.973
				C403.208,267.714,406.057,271.513,410.158,272.099z"/>
			<path d="M125.836,247.585c-10.271,3.091-28.452,20.93-31.229,27.872c-1.539,3.846,0.331,8.211,4.177,9.749
				c0.914,0.366,1.857,0.539,2.784,0.539c2.94,0,5.727-1.742,6.924-4.613c2.108-4.081,16.316-17.573,21.667-19.184
				c3.967-1.193,6.214-5.376,5.02-9.343C133.984,248.639,129.799,246.392,125.836,247.585z"/>
			<path d="M165.881,371.865c10.527,12.738,22.459,27.175,44.367,37.544c1.036,0.49,2.128,0.723,3.203,0.723
				c2.809,0,5.503-1.586,6.784-4.294c1.771-3.743,0.173-8.215-3.571-9.987c-12.5-5.915-21.245-13.396-28.634-21.283
				c1.607-0.406,3.264-0.839,4.981-1.289c16.101-4.218,36.138-9.469,44.92,1.106c1.483,1.786,3.62,2.708,5.773,2.708
				c1.689,0,3.388-0.567,4.788-1.73c3.187-2.647,3.624-7.375,0.978-10.562c-14.884-17.921-41.11-11.051-60.261-6.032
				c-4.529,1.186-8.862,2.318-12.288,2.911c-14.417-17.438-29.586-35.275-67.724-37.962c-4.13-0.291-7.718,2.822-8.009,6.954
				s2.822,7.718,6.954,8.009C140.329,340.947,151.605,354.592,165.881,371.865z"/>
			<path d="M510.962,291.989c-2.104-3.567-6.702-4.754-10.271-2.651c-1.278,0.754-3.624,2.183-6.632,4.064
				c1.351-11.385,2.054-23.188,2.054-35.419c0-10.683-0.529-21.193-1.582-31.49c5.849-10.561,9.488-21.861,7.769-34.631
				c-0.553-4.105-4.333-6.988-8.433-6.433c-2.501,0.336-4.542,1.872-5.634,3.947c-1.017-4.226-2.122-8.408-3.335-12.531
				c-1.169-3.974-5.338-6.25-9.311-5.079c-3.974,1.169-6.248,5.337-5.079,9.312c3.96,13.464,6.82,27.543,8.565,42.111
				c-3.519,5.683-7.779,11.358-12.13,17.153c-0.176,0.235-0.353,0.471-0.53,0.706c-1.151-1.48-2.441-3.096-3.887-4.905
				c-11.731-14.683-31.366-39.258-24.149-58.331c1.466-3.874-0.486-8.203-4.36-9.669c-3.874-1.469-8.204,0.485-9.669,4.36
				c-10.242,27.067,12.733,55.822,26.46,73.003c2.213,2.77,4.8,6.009,6.375,8.251c-6.425,9.395-11.995,19.36-14.618,30.652
				c-0.938,4.035,1.574,8.065,5.608,9.003c0.571,0.133,1.142,0.196,1.704,0.196c3.409,0,6.494-2.341,7.299-5.805
				c3.185-13.712,12.63-26.291,21.763-38.456c0.652-0.869,1.306-1.74,1.958-2.613c0.138,3.725,0.215,7.473,0.215,11.247
				c0,16.235-1.272,31.66-3.761,46.24c-13.075,8.772-27.22,19.073-30.824,24.644c-2.25,3.478-1.259,8.128,2.219,10.378
				c1.261,0.815,2.674,1.205,4.071,1.205c2.456,0,4.861-1.205,6.295-3.422c1.165-1.699,6.316-5.914,13.455-11.15
				c-3.832,13.986-8.925,27.06-15.313,39.121c-3.197,6.036-6.724,11.823-10.562,17.366c-12.289,3.672-23.84,3.731-34.844,0.218
				c-16.711-5.335-30.816-18.25-42.774-31.836c15.447-3.594,32.02-5.762,48.094-7.372c4.122-0.413,7.128-4.089,6.716-8.21
				c-0.414-4.122-4.098-7.131-8.21-6.716c-46.341,4.642-96.766,13.954-119.397,47.827c-2.301,3.443-1.374,8.102,2.07,10.402
				c1.279,0.855,2.727,1.265,4.159,1.265c2.421,0,4.797-1.171,6.243-3.335c9.421-14.101,25.43-23.258,44.357-29.441
				c14.278,17.061,31.774,34.552,54.178,41.705c6.993,2.233,14.094,3.354,21.333,3.354c1.294,0,2.592-0.041,3.895-0.113
				c-13.965,15.28-30.854,28.18-50.57,38.519c-4.543,2.383-9.081,4.844-13.721,7.386c-12.51-3.276-26.254-10.156-36.93-16.418
				c6.134-1.902,12.48-4.229,19.004-7.169c3.776-1.702,5.458-6.144,3.756-9.92c-1.703-3.776-6.146-5.455-9.92-3.756
				c-20.679,9.32-40.068,12.156-55.649,14.435c-13.853,2.025-25.817,3.774-34.682,9.39c-3.5,2.216-4.54,6.85-2.323,10.349
				c1.428,2.255,3.858,3.488,6.343,3.488c1.372,0,2.762-0.376,4.006-1.165c6.168-3.906,16.167-5.368,28.827-7.22
				c6.298-0.921,13.187-1.932,20.55-3.39c4.566,3.085,14.383,9.423,26.23,15.335c4.482,2.236,8.793,4.178,12.936,5.837
				c-32.225,17.539-65.544,33.907-100.996,33.907c-30.359,0-57.848-4.419-82.206-13.168c1.183-6.427,1.635-12.936,1.336-19.491
				c3.203-0.495,6.777-1.357,10.845-2.343c11.216-2.717,25.173-6.1,36.582-2.144c3.917,1.357,8.186-0.715,9.543-4.629
				c1.357-3.913-0.715-8.186-4.629-9.543c-15.57-5.4-32.598-1.274-45.029,1.737c-2.922,0.708-6.507,1.577-9.26,2.043
				c-1.402-6.529-3.523-13.073-6.381-19.594c-9.075-20.703-23.605-36.268-29.221-40.562c-3.291-2.515-7.998-1.888-10.514,1.402
				c-2.516,3.29-1.888,7.997,1.402,10.514c2.325,1.778,15.954,14.957,24.594,34.667c3.162,7.215,5.276,14.367,6.36,21.441
				c0.03,0.409,0.086,0.815,0.181,1.21c0.9,6.588,0.899,13.106-0.007,19.54c-9.781-4.436-18.995-9.639-27.611-15.62
				c-3.401-2.361-8.075-1.518-10.438,1.885c-2.362,3.402-1.519,8.076,1.885,10.438c10.095,7.007,20.919,13.032,32.438,18.07
				c-1.577,4.313-3.574,8.582-5.998,12.802c-2.063,3.592-0.823,8.176,2.769,10.239c1.178,0.676,2.461,0.997,3.729,0.997
				c2.598,0,5.124-1.352,6.511-3.766c2.781-4.842,5.09-9.777,6.932-14.784c25.704,9.073,54.52,13.657,86.186,13.657
				c43.302,0,83.561-22.162,119.08-41.716c0.703-0.387,1.385-0.762,2.081-1.144c3.897,0.711,7.583,1.079,11.039,1.079
				c3.671,0,7.092-0.402,10.251-1.208c4.014-1.023,6.439-5.107,5.415-9.12c-0.405-1.589-1.294-2.922-2.464-3.897
				c24.848-14,45.349-31.96,61.246-53.609c11.19-4.063,22.757-10.539,34.803-19.493c3.324-2.472,4.016-7.17,1.545-10.494
				c-2.473-3.324-7.17-4.016-10.494-1.545c-3.677,2.733-7.287,5.196-10.838,7.408c9.128-17.494,15.788-36.836,19.937-57.861
				c5.738-3.781,11.686-7.529,17.335-10.86C511.879,300.155,513.065,295.558,510.962,291.989z"/>
			<path d="M75.623,400.426c3.604-10.668,8.453-19.732,13.942-25.804c2.777-3.073,2.537-7.815-0.535-10.594
				c-3.073-2.776-7.815-2.537-10.594,0.535c-4.607,5.097-8.571,11.418-11.875,18.315c-4.279-8.431-8.969-16.933-13.542-25.21
				c-12.341-22.342-24.972-45.224-31.275-69.358c2.349-8.028,5.241-14.928,8.603-20.967c0.213,0.217,0.409,0.418,0.632,0.644
				c10.835,11.032,33.381,33.987,33.381,51.31c0,4.143,3.357,7.5,7.5,7.5s7.5-3.357,7.5-7.5c0-23.457-24.512-48.414-37.68-61.821
				c-0.901-0.918-1.843-1.878-2.704-2.767c11.041-13.333,25.125-21.89,40.678-31.335c2.742-1.666,5.512-3.348,8.3-5.077
				c3.52-2.184,4.603-6.807,2.419-10.327c-2.184-3.519-6.806-4.602-10.327-2.419c-2.746,1.703-5.476,3.361-8.178,5.002
				c-17.825,10.824-35.151,21.35-48.348,39.688c-0.058,0.077-0.121,0.148-0.177,0.228c-0.035,0.05-0.058,0.1-0.092,0.151
				c-1.96,2.751-3.828,5.676-5.591,8.804c-0.007-0.481-0.022-0.96-0.022-1.441c0-8.208,0.629-16.631,1.869-25.033
				c0.604-4.098-2.228-7.909-6.325-8.515c-4.082-0.602-7.91,2.227-8.515,6.325c-1.347,9.125-2.029,18.284-2.029,27.223
				c0,10.451,1.336,20.535,3.625,30.332c-3.397,12.985-5.592,28.376-6.258,46.902c-0.149,4.14,3.086,7.615,7.226,7.765
				c0.092,0.003,0.184,0.005,0.274,0.005c4.018,0,7.345-3.183,7.49-7.23c0.225-6.258,0.627-12.099,1.187-17.579
				c6.776,16.081,15.305,31.532,23.707,46.743c5.847,10.586,11.37,20.584,16.22,30.635c1.058,2.191,2.153,4.352,3.279,6.487
				c-5.556,19.496-6.389,39.068-2.041,47.038c1.361,2.497,3.937,3.912,6.594,3.912c1.213,0,2.443-0.295,3.583-0.917
				c3.636-1.983,4.978-6.536,2.994-10.173c-0.959-1.848-1.617-9.54,0.15-21.09c5.612,8.246,11.792,15.943,18.514,23.016
				c1.474,1.552,3.454,2.334,5.438,2.334c1.855,0,3.714-0.685,5.165-2.063c3.003-2.853,3.124-7.601,0.271-10.603
				C90.765,423.718,82.585,412.625,75.623,400.426z"/>
			<path d="M297.446,256.821c5.107,5.107,11.814,7.659,18.522,7.659c6.709,0,13.417-2.554,18.524-7.659l9.611-9.611
				c2.38-2.381,3.691-5.546,3.691-8.912c0-3.367-1.311-6.532-3.691-8.913l-19.223-19.223c-2.381-2.38-5.546-3.691-8.913-3.691
				c-3.366,0-6.531,1.312-8.912,3.691l-9.611,9.612c-10.212,10.214-10.212,26.832,0,37.046L297.446,256.821z M308.052,230.381
				l7.917-7.917l15.833,15.833l-7.916,7.917c-4.364,4.364-11.468,4.366-15.834,0.001
				C303.687,241.848,303.687,234.746,308.052,230.381z"/>
			<path d="M50.893,180.775c-2.986,2.869-3.082,7.617-0.212,10.604c1.473,1.532,3.439,2.304,5.409,2.304
				c1.869,0,3.741-0.694,5.195-2.092c4.37-4.197,13.226-6.07,18.439-5.125c4.067,0.733,7.979-1.966,8.718-6.042
				c0.739-4.075-1.966-7.979-6.042-8.718C73.403,170.075,59.3,172.697,50.893,180.775z"/>
			<path d="M190.852,324.878c1.471,1.514,3.425,2.274,5.381,2.274c1.883,0,3.768-0.704,5.225-2.12
				c2.971-2.886,3.04-7.634,0.154-10.605c-7.466-7.686-23.611-46.387-14.258-69.346c5.655-13.882,7.896-38.546,5.847-64.366
				c-1.049-13.213-4.911-45.525-18.097-60.176c-2.771-3.08-7.514-3.328-10.592-0.557c-3.078,2.771-3.328,7.513-0.557,10.592
				c6.912,7.681,12.389,27.348,14.292,51.327c0.994,12.529,0.907,24.854-0.125,35.386c-14.127-24.256-35.43-33.439-48.119-38.901
				c-2.956-1.271-5.509-2.371-7.263-3.345c-3.624-2.015-8.188-0.707-10.198,2.913c-2.012,3.621-0.708,8.188,2.913,10.198
				c2.415,1.342,5.29,2.579,8.618,4.012c15.356,6.609,38.382,16.538,48.44,49.821C162.437,271.528,179.937,313.641,190.852,324.878z
				"/>
		</g>
	</g>
</g>
<g>
</g>
<g>
</g>
<g>
</g>
<g>
</g>
<g>
</g>
<g>
</g>
<g>
</g>
<g>
</g>
<g>
</g>
<g>
</g>
<g>
</g>
<g>
</g>
<g>
</g>
<g>
</g>
<g>
</g>
</svg>
